<?xml version="1.0" encoding="UTF-8"?> <svg xmlns="http://www.w3.org/2000/svg" width="590" height="204" viewBox="0 0 590 204" fill="none"> <path fill-rule="evenodd" clip-rule="evenodd" d="M392.234 36.9739C392.234 27.4569 399.963 19.7419 409.497 19.7419H427.828V32.5304H409.497C407.038 32.5304 405.045 34.5198 405.045 36.9739V55.2731H392.234V36.9739ZM521.445 19.7419H539.777C549.31 19.7419 557.039 27.4569 557.039 36.9739V55.2731H544.228V36.9739C544.228 34.5198 542.235 32.5304 539.777 32.5304H521.445V19.7419ZM392.234 148.727H405.045V167.026C405.045 169.48 407.038 171.47 409.497 171.47H427.828V184.258H409.497C399.963 184.258 392.234 176.543 392.234 167.026V148.727ZM544.228 148.727H557.039V167.026C557.039 176.543 549.31 184.258 539.777 184.258H521.445V171.47H539.777C542.235 171.47 544.228 169.48 544.228 167.026V148.727Z" fill="#0075EB"></path> <path d="M46.2508 128.23C47.0243 128.301 48.0438 128.371 49.3095 128.441C50.5752 128.441 52.298 128.441 54.4778 128.441C63.408 128.441 70.0529 126.195 74.4126 121.702C78.8425 117.14 81.0575 110.787 81.0575 102.645C81.0575 94.3619 78.9128 88.0094 74.6235 83.5872C70.3342 79.165 63.6893 76.9539 54.6888 76.9539C50.751 76.9539 47.9384 77.0592 46.2508 77.2698V128.23ZM94.9802 102.645C94.9802 108.962 93.9957 114.472 92.0269 119.175C90.058 123.808 87.2453 127.704 83.5889 130.863C80.0027 133.951 75.6431 136.267 70.51 137.812C65.4472 139.286 59.8219 140.023 53.634 140.023C50.6807 140.023 47.3407 139.882 43.6139 139.602C39.8871 139.391 36.3361 138.9 32.9609 138.128V67.2672C36.3361 66.4951 39.9223 66.0037 43.7194 65.7932C47.5165 65.5826 50.8917 65.4773 53.845 65.4773C59.9625 65.4773 65.5527 66.2143 70.6155 67.6884C75.6783 69.0923 80.0027 71.3384 83.5889 74.427C87.2453 77.4453 90.058 81.3059 92.0269 86.0089C93.9957 90.6417 94.9802 96.187 94.9802 102.645Z" fill="#29323C"></path> <path d="M121.727 139.181H108.965V84.1137H121.727V139.181ZM123.098 68.0042C123.098 70.3908 122.325 72.2861 120.778 73.6899C119.231 75.0938 117.403 75.7957 115.293 75.7957C113.113 75.7957 111.25 75.0938 109.703 73.6899C108.156 72.2861 107.383 70.3908 107.383 68.0042C107.383 65.5475 108.156 63.6172 109.703 62.2133C111.25 60.8094 113.113 60.1075 115.293 60.1075C117.403 60.1075 119.231 60.8094 120.778 62.2133C122.325 63.6172 123.098 65.5475 123.098 68.0042Z" fill="#29323C"></path> <path d="M148.029 110.226C148.029 115.631 149.189 119.597 151.51 122.123C153.9 124.58 156.959 125.809 160.686 125.809C162.725 125.809 164.624 125.528 166.382 124.966C168.21 124.405 169.687 123.738 170.812 122.966V94.4321C169.898 94.2215 168.772 94.0461 167.436 93.9057C166.1 93.6951 164.413 93.5898 162.374 93.5898C157.733 93.5898 154.182 95.1341 151.721 98.2226C149.26 101.241 148.029 105.242 148.029 110.226ZM183.574 133.6C183.574 142.374 181.324 148.797 176.824 152.868C172.394 156.939 165.573 158.975 156.362 158.975C152.986 158.975 149.682 158.694 146.447 158.133C143.283 157.571 140.4 156.834 137.798 155.922L140.118 145.077C142.298 145.989 144.759 146.726 147.502 147.288C150.314 147.849 153.338 148.13 156.573 148.13C161.706 148.13 165.362 147.077 167.542 144.971C169.722 142.866 170.812 139.742 170.812 135.601V133.495C169.546 134.127 167.858 134.758 165.749 135.39C163.71 136.022 161.354 136.338 158.682 136.338C155.166 136.338 151.932 135.776 148.978 134.653C146.095 133.53 143.599 131.88 141.49 129.704C139.45 127.528 137.833 124.826 136.638 121.597C135.513 118.298 134.95 114.507 134.95 110.226C134.95 106.225 135.548 102.539 136.743 99.1702C138.009 95.8009 139.802 92.923 142.122 90.5364C144.513 88.1498 147.396 86.2897 150.771 84.956C154.147 83.6223 157.979 82.9555 162.268 82.9555C166.417 82.9555 170.355 83.2713 174.081 83.9031C177.808 84.5348 180.972 85.2017 183.574 85.9036V133.6Z" fill="#29323C"></path> <path d="M212.679 139.181H199.916V84.1137H212.679V139.181ZM214.05 68.0042C214.05 70.3908 213.276 72.2861 211.729 73.6899C210.182 75.0938 208.354 75.7957 206.245 75.7957C204.065 75.7957 202.201 75.0938 200.654 73.6899C199.107 72.2861 198.334 70.3908 198.334 68.0042C198.334 65.5475 199.107 63.6172 200.654 62.2133C202.201 60.8094 204.065 60.1075 206.245 60.1075C208.354 60.1075 210.182 60.8094 211.729 62.2133C213.276 63.6172 214.05 65.5475 214.05 68.0042Z" fill="#29323C"></path> <path d="M228.328 69.5836L241.09 67.4778V84.1137H260.708V94.748H241.09V117.175C241.09 121.597 241.793 124.756 243.2 126.651C244.606 128.546 246.997 129.494 250.372 129.494C252.692 129.494 254.731 129.248 256.489 128.757C258.318 128.265 259.759 127.809 260.814 127.388L262.923 137.496C261.447 138.128 259.513 138.759 257.122 139.391C254.731 140.093 251.919 140.444 248.684 140.444C244.746 140.444 241.442 139.918 238.77 138.865C236.168 137.812 234.094 136.303 232.547 134.337C231 132.302 229.91 129.88 229.277 127.072C228.644 124.194 228.328 120.93 228.328 117.28V69.5836Z" fill="#29323C"></path> <path d="M292.453 130.231C296.391 130.231 299.379 130.02 301.418 129.599V115.49C300.715 115.28 299.696 115.069 298.36 114.858C297.024 114.648 295.547 114.543 293.93 114.543C292.523 114.543 291.082 114.648 289.605 114.858C288.199 115.069 286.898 115.455 285.703 116.017C284.578 116.578 283.663 117.385 282.96 118.438C282.257 119.421 281.905 120.685 281.905 122.229C281.905 125.247 282.855 127.353 284.753 128.546C286.652 129.669 289.218 130.231 292.453 130.231ZM291.398 82.7449C295.617 82.7449 299.168 83.2714 302.051 84.3243C304.934 85.3772 307.219 86.8512 308.907 88.7464C310.665 90.6417 311.896 92.9581 312.599 95.6956C313.372 98.363 313.759 101.311 313.759 104.54V137.917C311.79 138.338 308.802 138.83 304.794 139.391C300.856 140.023 296.391 140.339 291.398 140.339C288.093 140.339 285.07 140.023 282.327 139.391C279.585 138.759 277.229 137.742 275.261 136.338C273.362 134.934 271.85 133.109 270.725 130.863C269.67 128.616 269.143 125.844 269.143 122.545C269.143 119.386 269.741 116.719 270.936 114.543C272.202 112.367 273.889 110.612 275.999 109.278C278.108 107.874 280.534 106.891 283.277 106.33C286.089 105.698 289.007 105.382 292.031 105.382C293.437 105.382 294.914 105.488 296.461 105.698C298.008 105.839 299.66 106.119 301.418 106.541V104.435C301.418 102.961 301.243 101.557 300.891 100.223C300.539 98.8894 299.907 97.7312 298.992 96.7485C298.149 95.6956 296.988 94.8884 295.512 94.3268C294.105 93.7653 292.312 93.4845 290.133 93.4845C287.179 93.4845 284.472 93.6951 282.011 94.1163C279.55 94.5374 277.546 95.0288 275.999 95.5903L274.417 85.2719C276.034 84.7103 278.39 84.1488 281.484 83.5872C284.578 83.0257 287.882 82.7449 291.398 82.7449Z" fill="#29323C"></path> <path d="M348.585 140.233C344.787 140.163 341.623 139.742 339.092 138.97C336.631 138.198 334.662 137.11 333.185 135.706C331.709 134.232 330.654 132.442 330.021 130.336C329.458 128.16 329.177 125.703 329.177 122.966V59.581L341.94 57.4752V120.544C341.94 122.088 342.045 123.387 342.256 124.44C342.537 125.493 342.994 126.405 343.627 127.177C344.26 127.879 345.104 128.441 346.159 128.862C347.284 129.213 348.69 129.494 350.378 129.704L348.585 140.233Z" fill="#29323C"></path> <path d="M431.788 66.5434H445.078V139.51H431.788V66.5434Z" fill="#0075EB"></path> <path d="M475.876 128.559C476.649 128.63 477.669 128.7 478.934 128.77C480.2 128.77 481.923 128.77 484.103 128.77C493.033 128.77 499.678 126.524 504.037 122.031C508.467 117.469 510.682 111.116 510.682 102.974C510.682 94.691 508.538 88.3385 504.248 83.9163C499.959 79.4941 493.314 77.283 484.314 77.283C480.376 77.283 477.563 77.3883 475.876 77.5989V128.559ZM524.605 102.974C524.605 109.291 523.621 114.801 521.652 119.504C519.683 124.137 516.87 128.033 513.214 131.192C509.628 134.28 505.268 136.597 500.135 138.141C495.072 139.615 489.447 140.352 483.259 140.352C480.306 140.352 476.966 140.212 473.239 139.931C469.512 139.72 465.961 139.229 462.586 138.457V67.5963C465.961 66.8242 469.547 66.3329 473.344 66.1223C477.141 65.9117 480.517 65.8064 483.47 65.8064C489.587 65.8064 495.178 66.5434 500.24 68.0175C505.303 69.4214 509.628 71.6676 513.214 74.7561C516.87 77.7744 519.683 81.635 521.652 86.338C523.621 90.9708 524.605 96.5161 524.605 102.974Z" fill="#0075EB"></path> </svg> 